<?xml version="1.0" encoding="UTF-8" standalone="no"?>
<!-- Generator: Adobe Illustrator 16.0.0, SVG Export Plug-In . SVG Version: 6.00 Build 0)  -->

<svg
   xmlns:dc="http://purl.org/dc/elements/1.1/"
   xmlns:cc="http://creativecommons.org/ns#"
   xmlns:rdf="http://www.w3.org/1999/02/22-rdf-syntax-ns#"
   xmlns:svg="http://www.w3.org/2000/svg"
   xmlns="http://www.w3.org/2000/svg"
   xmlns:sodipodi="http://sodipodi.sourceforge.net/DTD/sodipodi-0.dtd"
   xmlns:inkscape="http://www.inkscape.org/namespaces/inkscape"
   version="1.1"
   x="0px"
   y="0px"
   width="630.84784"
   height="109.21699"
   viewBox="150 200 449.59401 55.041484"
   id="svg3841"
   sodipodi:docname="pp-logo-2.svg"
   inkscape:version="0.92.3 (2405546, 2018-03-11)">
  <metadata
     id="metadata3847">
    <rdf:RDF>
      <cc:Work
         rdf:about="">
        <dc:format>image/svg+xml</dc:format>
        <dc:type
           rdf:resource="http://purl.org/dc/dcmitype/StillImage" />
      </cc:Work>
    </rdf:RDF>
  </metadata>
  <defs
     id="defs3845" />
  <sodipodi:namedview
     pagecolor="#ffffff"
     bordercolor="#666666"
     borderopacity="1"
     objecttolerance="10"
     gridtolerance="10"
     guidetolerance="10"
     inkscape:pageopacity="0"
     inkscape:pageshadow="2"
     inkscape:window-width="1916"
     inkscape:window-height="1033"
     id="namedview3843"
     showgrid="false"
     inkscape:zoom="1.4329391"
     inkscape:cx="152.3499"
     inkscape:cy="8.8566458"
     inkscape:window-x="0"
     inkscape:window-y="22"
     inkscape:window-maximized="0"
     inkscape:current-layer="svg3841" />
  <g
     id="guides"
     transform="translate(-46.697,-118.26273)" />
  <g
     id="luft_runt_logga"
     transform="translate(-46.697,-118.26273)">
    <rect
       x="155.466"
       y="216.662"
       width="529.62701"
       height="156.41901"
       id="rect3801"
       style="fill:none" />
  </g>
  <g
     id="logga_och_text"
     transform="translate(-46.697,-67.537758)">
    <g
       id="g3810">
      <path
         d="m 235.333,332.631 c 20.604,0 37.309,-16.822 37.309,-37.574 0,-20.749 -16.706,-37.572 -37.309,-37.572 -20.606,0 -37.31,16.823 -37.31,37.572 0,20.752 16.703,37.574 37.31,37.574"
         id="path3804"
         inkscape:connector-curvature="0"
         style="fill:#ffffff" />
      <path
         d="m 226.28,308.075 c -8.341,5.3 -4.596,16.505 -4.596,16.505 0,0 -5.044,-10.5 -1.515,-17.346 v -32.868 c -1.451,-0.094 -2.665,0.006 -3.425,0.229 -0.216,-0.474 1.112,-1.209 3.425,-1.919 v -6.325 h 3.392 v 5.468 c 12.24,-2.554 36.638,-2.68 36.767,18.626 0.089,15.043 -26.371,12.752 -34.048,17.63 m 9.053,-51.935 c -21.338,0 -38.636,17.425 -38.636,38.919 0,21.494 17.298,38.918 38.636,38.918 21.338,0 38.635,-17.424 38.635,-38.918 -0.001,-21.494 -17.298,-38.919 -38.635,-38.919"
         id="path3806"
         inkscape:connector-curvature="0"
         style="fill:#522e91" />
      <path
         d="m 223.56,274.891 v 28.678 c 3.584,-2.449 9.732,-5.411 10.922,-11.079 2.389,-11.386 -4.802,-16.115 -10.922,-17.599"
         id="path3808"
         inkscape:connector-curvature="0"
         style="fill:#522e91" />
    </g>
    <g
       id="g3838">
      <path
         d="m 297.476,298.857 v 15.752 h -2.818 v -39.103 h 10.086 c 9.175,0 13.874,4.173 13.874,11.606 0,6.853 -5.251,11.744 -13.874,11.744 h -7.268 z m 0,-2.265 h 7.268 c 6.909,0 11.054,-4.063 11.054,-9.479 0,-5.998 -3.73,-9.369 -11.054,-9.369 h -7.268 z"
         id="path3812"
         inkscape:connector-curvature="0" />
      <path
         d="m 330.488,314.609 h -2.846 v -39.103 h 2.846 z"
         id="path3814"
         inkscape:connector-curvature="0" />
      <path
         d="m 345.236,296.923 v 17.687 h -2.819 v -39.103 h 9.977 c 9.037,0 13.459,3.536 13.459,10.28 0,5.913 -4.283,10.057 -11.11,10.805 0.442,0.275 0.829,0.635 1.188,1.105 l 13.459,16.912 h -2.459 c -0.582,0 -0.969,-0.193 -1.383,-0.717 l -12.519,-15.864 c -0.635,-0.802 -1.161,-1.105 -2.68,-1.105 z m 0,-2.099 h 6.798 c 6.965,0 11.054,-3.456 11.054,-8.872 0,-5.555 -3.73,-8.208 -10.694,-8.208 h -7.158 z"
         id="path3816"
         inkscape:connector-curvature="0" />
      <path
         d="m 407.884,314.609 h -2.183 c -0.526,0 -0.829,-0.303 -1.022,-0.745 l -4.615,-11.358 h -19.207 l -4.587,11.358 c -0.139,0.414 -0.525,0.745 -1.05,0.745 h -2.156 l 16,-39.103 h 2.82 z m -26.17,-14.205 h 17.521 l -7.987,-19.758 c -0.248,-0.637 -0.525,-1.438 -0.773,-2.32 -0.248,0.883 -0.525,1.684 -0.773,2.349 z"
         id="path3818"
         inkscape:connector-curvature="0" />
      <path
         d="m 434.448,275.507 v 2.403 h -13.736 v 36.699 h -2.818 V 277.91 h -13.817 v -2.403 z"
         id="path3820"
         inkscape:connector-curvature="0" />
      <g
         id="g3824">
        <path
           d="m 444.724,298.857 v 15.752 h -2.82 v -39.103 h 10.088 c 9.175,0 13.873,4.173 13.873,11.606 0,6.853 -5.251,11.744 -13.873,11.744 h -7.268 z m 0,-2.265 h 7.268 c 6.909,0 11.056,-4.063 11.056,-9.479 0,-5.998 -3.731,-9.369 -11.056,-9.369 h -7.268 z"
           id="path3822"
           inkscape:connector-curvature="0" />
      </g>
      <path
         d="m 500.014,314.609 h -2.184 c -0.525,0 -0.829,-0.303 -1.023,-0.745 l -4.615,-11.358 h -19.206 l -4.587,11.358 c -0.139,0.414 -0.525,0.745 -1.05,0.745 h -2.155 l 16,-39.103 h 2.819 z m -26.171,-14.205 h 17.521 l -7.988,-19.758 c -0.247,-0.637 -0.524,-1.438 -0.773,-2.32 -0.248,0.883 -0.524,1.684 -0.773,2.349 z"
         id="path3826"
         inkscape:connector-curvature="0" />
      <path
         d="m 509.84,296.923 v 17.687 h -2.819 v -39.103 h 9.977 c 9.038,0 13.459,3.536 13.459,10.28 0,5.913 -4.283,10.057 -11.109,10.805 0.441,0.275 0.827,0.635 1.188,1.105 l 13.459,16.912 h -2.459 c -0.582,0 -0.969,-0.193 -1.382,-0.717 l -12.521,-15.864 c -0.635,-0.802 -1.16,-1.105 -2.68,-1.105 z m 0,-2.099 h 6.798 c 6.964,0 11.055,-3.456 11.055,-8.872 0,-5.555 -3.731,-8.208 -10.695,-8.208 h -7.157 v 17.08 z"
         id="path3828"
         inkscape:connector-curvature="0" />
      <path
         d="m 565.375,275.507 v 2.403 H 551.64 v 36.699 h -2.817 V 277.91 h -13.818 v -2.403 z"
         id="path3830"
         inkscape:connector-curvature="0" />
      <path
         d="m 577.004,314.609 h -2.848 v -39.103 h 2.848 z"
         id="path3832"
         inkscape:connector-curvature="0" />
      <path
         d="m 611.537,275.507 v 2.349 h -20.588 v 15.807 h 17.135 v 2.295 h -17.135 v 16.304 h 20.588 v 2.349 h -23.436 v -39.103 h 23.436 z"
         id="path3834"
         inkscape:connector-curvature="0" />
      <path
         d="m 646.291,275.507 v 2.403 h -13.735 v 36.699 h -2.818 V 277.91 H 615.92 v -2.403 z"
         id="path3836"
         inkscape:connector-curvature="0" />
    </g>
  </g>
</svg>
